<svg width="1200" height="1200" viewBox="0 0 1200 1200" fill="none" xmlns="http://www.w3.org/2000/svg">
<g id="frame_01_01" clip-path="url(#clip0_45_17)">
<rect width="1200" height="1200" fill="white"/>
<g id="map_graphic">
<g id="British_Columbia">
<path d="M63.7743 524.157L67.9371 547.556L65.3659 554.663L79.2293 555.567L84.9832 549.233L94.7217 551.056L93.827 559.523L97.8805 569.804L100.142 619.833L96.7254 622.768L99.055 625.213L96.8051 635.993L112.282 655.779L101.645 679.447L87.3751 691.253L92.193 716.205L96.5869 711.535L106.645 712.265L97.4167 721.02L100.949 737.657L95.6618 743.391L98.9193 750.508L110.873 748.423L111.331 753.655L95.9124 758.718L94.4555 766.247L98.2425 766.955L90.5212 775.577L96.2523 786.191L99.2372 783.814L108.339 792.003L104.082 797.648L115.599 802.445L122.639 809.776L120.444 815.24L123.84 823.942L129.163 824.554L129.608 835.578L133.438 837.36L132.718 846.941L142.041 847.125L272.096 887.624L266.171 873.754L268.574 851.079L258.011 838.498L258.737 834.033L251.404 823.208L250.985 813.973L245.998 813.046L245.343 807.039L238.211 800.742L237.598 795.212L233.603 792.874L233.299 783.914L226.792 777.043L228.404 772.617L217.843 762.88L222.216 759.9L215.658 756.15L257.798 618.714L211.682 603.439L108.386 553.25L63.7743 524.157ZM56.5836 677.559L48.3358 692.032L51.1924 694.418L50.9421 703.426L58.3165 703.3L72.2994 687.767L65.8104 686.738L62.2507 693.97L56.3671 692.888L64.3131 687.427L56.5836 677.559ZM79.5216 697.77L83.5795 702.168L86.5645 699.79L79.5216 697.77ZM59.4405 704.28L50.0439 705.621L55.5683 732.122L59.2587 732.318L54.6221 715.817L56.678 708.755L62.426 707.694L59.4405 704.28ZM81.2838 706.044L78.3935 709.504L82.9028 718.615L85.2887 715.77L81.2838 706.044ZM97.8057 713.597L96.4987 716.906L102.063 713.744L97.8057 713.597ZM94.8568 722.322L88.6725 730.264L93.7917 740.412L98.253 731.023L94.8568 722.322ZM85.1659 732.168L84.0843 738.054L88.2835 737.687L88.341 732.41L85.1659 732.168ZM107.965 750.794L95.9828 753.44L96.2117 756.056L108.671 753.369L107.965 750.794ZM81.7462 777.942L76.9163 783.117L80.5568 788.084L86.8169 787.536L79.0968 796.172L87.0244 801.776L87.9985 806.976L92.2913 807.678L92.9689 821.357L96.6142 821.038L97.5308 831.515L101.722 836.992L106.393 835.493L105.278 841.434L115.246 852.703L122.955 856.262L125.593 838.046L115.187 827.854L112.746 805.889L81.7462 777.942ZM89.7204 808.409L86.36 812.43L91.4 815.145L89.7204 808.409ZM120.429 821.604L119.812 826.411L125.742 833.813L126.961 829.499L120.429 821.604Z" fill="#EEEEEE"/>
<path d="M86.7096 701.894L88.7765 719.14M63.7743 524.157L67.9371 547.556L65.3659 554.663L79.2293 555.567L84.9832 549.233L94.7217 551.056L93.827 559.523L97.8805 569.804L100.142 619.833L96.7254 622.768L99.055 625.213L96.8051 635.993L112.282 655.779L101.645 679.447L87.3751 691.253L92.193 716.205L96.5869 711.535L106.645 712.265L97.4167 721.02L100.949 737.657L95.6618 743.391L98.9193 750.508L110.873 748.423L111.331 753.655L95.9124 758.718L94.4555 766.247L98.2425 766.955L90.5212 775.577L96.2523 786.191L99.2372 783.814L108.339 792.003L104.082 797.648L115.599 802.445L122.639 809.776L120.444 815.24L123.84 823.942L129.163 824.554L129.608 835.578L133.438 837.36L132.718 846.941L142.041 847.125L272.096 887.624L266.171 873.754L268.574 851.079L258.011 838.498L258.737 834.033L251.404 823.208L250.985 813.973L245.998 813.046L245.343 807.039L238.211 800.742L237.598 795.212L233.603 792.874L233.299 783.914L226.792 777.043L228.404 772.617L217.843 762.88L222.216 759.9L215.658 756.15L257.798 618.714L211.682 603.439L108.386 553.25L63.7743 524.157ZM56.5836 677.559L48.3358 692.032L51.1924 694.418L50.9421 703.426L58.3165 703.3L72.2994 687.767L65.8104 686.738L62.2507 693.97L56.3671 692.888L64.3131 687.427L56.5836 677.559ZM79.5216 697.77L83.5795 702.168L86.5645 699.79L79.5216 697.77ZM59.4405 704.28L50.0439 705.621L55.5683 732.122L59.2587 732.318L54.6221 715.817L56.678 708.755L62.426 707.694L59.4405 704.28ZM81.2838 706.044L78.3935 709.504L82.9028 718.615L85.2887 715.77L81.2838 706.044ZM97.8057 713.597L96.4987 716.906L102.063 713.744L97.8057 713.597ZM94.8568 722.322L88.6725 730.264L93.7917 740.412L98.253 731.023L94.8568 722.322ZM85.1659 732.168L84.0843 738.054L88.2835 737.687L88.341 732.41L85.1659 732.168ZM107.965 750.794L95.9828 753.44L96.2117 756.056L108.671 753.369L107.965 750.794ZM81.7462 777.942L76.9163 783.117L80.5568 788.084L86.8169 787.536L79.0968 796.172L87.0244 801.776L87.9985 806.976L92.2913 807.678L92.9689 821.357L96.6142 821.038L97.5308 831.515L101.722 836.992L106.393 835.493L105.278 841.434L115.246 852.703L122.955 856.262L125.593 838.046L115.187 827.854L112.746 805.889L81.7462 777.942ZM89.7204 808.409L86.36 812.43L91.4 815.145L89.7204 808.409ZM120.429 821.604L119.812 826.411L125.742 833.813L126.961 829.499L120.429 821.604Z" stroke="black" stroke-opacity="0.6" stroke-width="3"/>
</g>
<g id="Quebec">
<path d="M754.078 537.767L745.165 550.13L741.816 548.345L738.787 550.22L717.213 551.537L712.581 558.824L714.72 565.026L722.885 573.791L725.282 583.086L723.738 589.623L725.596 592.616L727.519 590.851L733.806 601.884L740.245 609.319L737.904 612.679L738.257 622.647L736.802 630.202L732.819 633.187L736.507 638.694L741.035 642.532L746.957 643.611L758.574 649.399L770.565 660.049L776.386 671.694L779.393 687.819L777.552 697.485L768.239 717.882L763.328 721.986L759.07 728.202L750.887 730.516L752.143 733.003L755.882 733.753L760.024 738.663L766.797 743.382L766.518 746.574L770.512 755.73L775.83 761.628L778.864 766.634L782.201 774.809L784.861 775.096L787.464 780.659L784.851 787.29L784.784 792.009L789.312 795.846L789.634 799.532L787.159 801.359L785.206 797.283L780.298 795.038L777.922 798.44L780.317 806.23L781.139 806.43L809.018 887.721L813.444 896.32L823.148 904.431L833.595 909.308L850.875 907.277L859.19 911.821L865.914 910.194L869.587 915.677L876.045 916.502L878.945 915.378L896.277 901.188L904.257 901.009L908.269 913.046L907.551 909.434L908.462 913.913L909.01 912.904L954.158 891.891L953 884.591L956.684 884.268L958.506 880.914L960.751 882.835L960.889 878.031L964.016 877.277L960.618 874.938L963.666 867.789L962.451 865.779L963.343 864.104L962.509 860.502L958.923 856.011L960.099 851.207L957.959 844.993L959.728 827.827L961.338 822.492L963.399 822.312L964.191 825.424L965.136 823.471L965.51 824.036L969.011 820.289L970.661 814.82L966.978 809.364L969.742 804.318L976.833 800.503L979.033 801.908L981.091 801.247L987.874 793.771L993.297 789.596L992.325 787.681L994.136 786.874L999.939 781.094L1002.13 781.941L1007.93 781.434L1015.55 765.95L1014.27 757.661L1009.69 753.27L997.507 753.297L988.774 756.139L971.049 777.272L955.876 802.934L952.493 812.189L948.9 837.877L946.747 843.39L940.951 849.688L937.394 857.388L934.318 858.735L926.166 867.915L918.627 884.416L917.533 896.095L913.786 901.773L910.671 904.448L915.093 898.464L915.966 884.117L920.416 874.742L941.146 845.983L943.809 839.92L942.657 833.138L945.549 829.691L947.517 803.678L951.883 787.415L956.201 775.935L963.195 771.609L962.001 757.962L964.356 748.238L973.072 739.567L1003.63 720.506L1005.22 720.367L1024.28 708.635L1027.93 708.316L1035.73 700.752L1047.14 692.364L1047.02 684.987L1049.98 670.457L1048.21 668.495L1048.03 666.394L1049.94 664.11L1049.06 659.941L1055.94 654.067L1055.2 651.496L1056.84 646.028L1062.99 643.386C1059.14 639.088 1059.65 639.277 1053.87 633.589C1053.2 635.075 985.141 683.167 983.222 685.854C982.33 687.088 983.19 686.377 978.141 689.493C977.155 690.099 976.544 687.114 975.224 685.827C973.027 683.69 967.876 684.282 967.707 680.174C967.717 677.173 969.974 676.859 971.726 673.589L967.469 671.962L965.147 678.359L965.333 682.264L968.886 685.784C970.983 691.258 973.773 696.615 975.613 702.141L972.349 706.816L967.167 702.478L962.652 705.028L954.807 699.923L954.521 702.584L947.845 704.766L943.933 702.472L942.908 704.561C941.643 704.672 941.067 703.646 940.249 702.794L941.601 700.001L938.709 697.059L939.043 694.953L932.73 689.103L930.403 693.072L933.424 697.041L932.539 699.235L923.94 696.793L920.957 693.847L924.944 690.901L918.463 683.002L916.445 684.256L905.253 677.249L905.358 672.513L900.366 669.756L905.316 665.648L907.048 661.263L900.343 657.616L896.847 653.715L909.859 657.342L908.881 652.104L901.947 645.841L911.222 648.743L921.784 648.858L928.51 640.868L931.908 643.22L935.805 639.684L939.589 640.951L944.689 638.427L939.506 634.076L942.536 632.213L938.775 625.712L937.286 620.57L932.662 622.014L934.578 619.729L927.018 611.95L928.374 609.196L923.244 611.242L918.484 604.75L921.098 604.521L913.814 599.886L916.024 594.888L912.021 591.564L913.287 587.778L909.979 586.47L910.726 582.691L907.127 578.201L902.366 577.631L893.644 574.667L892.336 571.587L895.14 567.148L890.432 562.288L894.781 557.103L893.058 555.656L888.57 559.256L885.395 559.015L877.734 561.801L882.595 557.13L878.544 553.251L875.986 548.203L874.631 550.957L870.802 549.176L869.404 545.065L869.085 541.418L865.858 541.181L868.666 536.183L867.206 536.856L862.13 534.625L864.023 550.327L865.972 554.351L869.691 572.53L865.479 572.898L867.2 580.708L859.885 592.931L853.654 588.762L850.427 588.525L842.769 584.962L834.453 592.572L832.204 596.989L830.558 596.574L827.526 592.035L830.806 592.878L831.698 591.202L830.445 589.196L833.336 585.748L828.665 580.872L826.704 582.64L824.891 580.163L824.707 578.063L819.728 569.512L818.698 569.602L817.96 567.55L818.984 566.941L813.662 561.005L810.587 555.522L812.798 550.537L808.837 547.689L807.378 549.414L810.322 552.35L805.556 552.767L804.297 550.242L799.676 551.724L799.905 554.34L786.219 555.018L783.142 549.963L783.429 547.315L782.259 545.807L780.768 547.015L770.482 543.682L767.007 540.311L754.078 537.767ZM865.125 540.518L865.449 541.853L864.401 541.737L865.125 540.518ZM887.524 667.763L884.301 673.356L886.585 675.285L889.614 673.41L893.387 676.768L886.814 677.901L889.233 681.365L888.856 682.995L884.989 681.217L881.452 677.293L875.179 677.841L874.848 679.987L879.891 682.74L880.12 685.356L883.627 683.452L884.232 684.438L883.44 687.702L894.875 685.624L895.059 687.724L889.353 688.223L886.461 691.671L887.761 694.206L887.336 695.282L885.566 693.307L881.322 693.159L880.014 690.079L877.065 693.012L874.736 690.58L868.808 688.982L869.139 686.836L875.261 683.665L873.911 681.147L871.85 681.327L868.874 677.874L870.929 677.175L876.817 671.335L881.071 672.041L887.524 667.763ZM793.201 725.177L798.946 724.675L800.808 727.706L796.226 736.015L796.919 737.552L798.503 737.413L805.568 733.601L807.339 735.601L793.41 745.819L789.81 746.653L787.294 742.069L784.585 741.825L783.977 740.801L791.415 734.878L791.276 733.293L796.003 727.088L793.201 725.177ZM1022.07 725.8L1018.04 728.231L1012.72 727.657L995.949 735.488L1006.6 736.153L1012.15 739.343L1025.23 737.679L1031.78 733.911L1042.14 731.408L1042.33 727.716L1038.97 725.894L1022.07 725.8ZM1064.06 752.785L1059.46 760.59L1061.09 767.316L1063.25 767.647L1065.72 765.833L1062.83 762.892L1062.04 759.754L1064.84 755.353L1064.06 752.785Z" fill="#EEEEEE"/>
<path d="M908.364 913.233L907.94 913.439M754.078 537.767L745.165 550.13L741.816 548.345L738.787 550.22L717.213 551.537L712.581 558.824L714.72 565.026L722.885 573.791L725.282 583.086L723.738 589.623L725.596 592.616L727.519 590.851L733.806 601.884L740.245 609.319L737.904 612.679L738.257 622.647L736.802 630.202L732.819 633.187L736.507 638.694L741.035 642.532L746.957 643.611L758.574 649.399L770.565 660.049L776.386 671.694L779.393 687.819L777.552 697.485L768.239 717.882L763.328 721.986L759.07 728.202L750.887 730.516L752.143 733.003L755.882 733.753L760.024 738.663L766.797 743.382L766.518 746.574L770.512 755.73L775.83 761.628L778.864 766.634L782.201 774.809L784.861 775.096L787.464 780.659L784.851 787.29L784.784 792.009L789.312 795.846L789.634 799.532L787.159 801.359L785.206 797.283L780.298 795.038L777.922 798.44L780.317 806.23L781.139 806.43L809.018 887.721L813.444 896.32L823.148 904.431L833.595 909.308L850.875 907.277L859.19 911.821L865.914 910.194L869.587 915.677L876.045 916.502L878.945 915.378L896.277 901.188L904.257 901.009L908.269 913.046L907.551 909.434L908.462 913.913L909.01 912.904L954.158 891.891L953 884.591L956.684 884.268L958.506 880.914L960.751 882.835L960.889 878.031L964.016 877.277L960.618 874.938L963.666 867.789L962.451 865.779L963.343 864.104L962.509 860.502L958.923 856.011L960.099 851.207L957.959 844.993L959.728 827.827L961.338 822.492L963.399 822.312L964.191 825.424L965.136 823.471L965.51 824.036L969.011 820.289L970.661 814.82L966.978 809.364L969.742 804.318L976.833 800.503L979.033 801.908L981.091 801.247L987.874 793.771L993.297 789.596L992.325 787.681L994.136 786.874L999.939 781.094L1002.13 781.941L1007.93 781.434L1015.55 765.95L1014.27 757.661L1009.69 753.27L997.507 753.297L988.774 756.139L971.049 777.272L955.876 802.934L952.493 812.189L948.9 837.877L946.747 843.39L940.951 849.688L937.394 857.388L934.318 858.735L926.166 867.915L918.627 884.416L917.533 896.095L913.786 901.773L910.671 904.448L915.093 898.464L915.966 884.117L920.416 874.742L941.146 845.983L943.809 839.92L942.657 833.138L945.549 829.691L947.517 803.678L951.883 787.415L956.201 775.935L963.195 771.609L962.001 757.962L964.356 748.238L973.072 739.567L1003.63 720.506L1005.22 720.367L1024.28 708.635L1027.93 708.316L1035.73 700.752L1047.14 692.364L1047.02 684.987L1049.98 670.457L1048.21 668.495L1048.03 666.394L1049.94 664.11L1049.06 659.941L1055.94 654.067L1055.2 651.496L1056.84 646.028L1062.99 643.386C1059.14 639.088 1059.65 639.277 1053.87 633.589C1053.2 635.075 985.141 683.167 983.222 685.854C982.33 687.088 983.19 686.377 978.141 689.493C977.155 690.099 976.544 687.114 975.224 685.827C973.027 683.69 967.876 684.282 967.707 680.174C967.717 677.173 969.974 676.859 971.726 673.589L967.469 671.962L965.147 678.359L965.333 682.264L968.886 685.784C970.983 691.258 973.773 696.615 975.613 702.141L972.349 706.816L967.167 702.478L962.652 705.028L954.807 699.923L954.521 702.584L947.845 704.766L943.933 702.472L942.908 704.561C941.643 704.672 941.067 703.646 940.249 702.794L941.601 700.001L938.709 697.059L939.043 694.953L932.73 689.103L930.403 693.072L933.424 697.041L932.539 699.235L923.94 696.793L920.957 693.847L924.944 690.901L918.463 683.002L916.445 684.256L905.253 677.249L905.358 672.513L900.366 669.756L905.316 665.648L907.048 661.263L900.343 657.616L896.847 653.715L909.859 657.342L908.881 652.104L901.947 645.841L911.222 648.743L921.784 648.858L928.51 640.868L931.908 643.22L935.805 639.684L939.589 640.951L944.689 638.427L939.506 634.076L942.536 632.213L938.775 625.712L937.286 620.57L932.662 622.014L934.578 619.729L927.018 611.95L928.374 609.196L923.244 611.242L918.484 604.75L921.098 604.521L913.814 599.886L916.024 594.888L912.021 591.564L913.287 587.778L909.979 586.47L910.726 582.691L907.127 578.201L902.366 577.631L893.644 574.667L892.336 571.587L895.14 567.148L890.432 562.288L894.781 557.103L893.058 555.656L888.57 559.256L885.395 559.015L877.734 561.801L882.595 557.13L878.544 553.251L875.986 548.203L874.631 550.957L870.802 549.176L869.404 545.065L869.085 541.418L865.858 541.181L868.666 536.183L867.206 536.856L862.13 534.625L864.023 550.327L865.972 554.351L869.691 572.53L865.479 572.898L867.2 580.708L859.885 592.931L853.654 588.762L850.427 588.525L842.769 584.962L834.453 592.572L832.204 596.989L830.558 596.574L827.526 592.035L830.806 592.878L831.698 591.202L830.445 589.196L833.336 585.748L828.665 580.872L826.704 582.64L824.891 580.163L824.707 578.063L819.728 569.512L818.698 569.602L817.96 567.55L818.984 566.941L813.662 561.005L810.587 555.522L812.798 550.537L808.837 547.689L807.378 549.414L810.322 552.35L805.556 552.767L804.297 550.242L799.676 551.724L799.905 554.34L786.219 555.018L783.142 549.963L783.429 547.315L782.259 545.807L780.768 547.015L770.482 543.682L767.007 540.311L754.078 537.767ZM865.125 540.518L865.449 541.853L864.401 541.737L865.125 540.518ZM887.524 667.763L884.301 673.356L886.585 675.285L889.614 673.41L893.387 676.768L886.814 677.901L889.233 681.365L888.856 682.995L884.989 681.217L881.452 677.293L875.179 677.841L874.848 679.987L879.891 682.74L880.12 685.356L883.627 683.452L884.232 684.438L883.44 687.702L894.875 685.624L895.059 687.724L889.353 688.223L886.461 691.671L887.761 694.206L887.336 695.282L885.566 693.307L881.322 693.159L880.014 690.079L877.065 693.012L874.736 690.58L868.808 688.982L869.139 686.836L875.261 683.665L873.911 681.147L871.85 681.327L868.874 677.874L870.929 677.175L876.817 671.335L881.071 672.041L887.524 667.763ZM793.201 725.177L798.946 724.675L800.808 727.706L796.226 736.015L796.919 737.552L798.503 737.413L805.568 733.601L807.339 735.601L793.41 745.819L789.81 746.653L787.294 742.069L784.585 741.825L783.977 740.801L791.415 734.878L791.276 733.293L796.003 727.088L793.201 725.177ZM1022.07 725.8L1018.04 728.231L1012.72 727.657L995.949 735.488L1006.6 736.153L1012.15 739.343L1025.23 737.679L1031.78 733.911L1042.14 731.408L1042.33 727.716L1038.97 725.894L1022.07 725.8ZM1064.06 752.785L1059.46 760.59L1061.09 767.316L1063.25 767.647L1065.72 765.833L1062.83 762.892L1062.04 759.754L1064.84 755.353L1064.06 752.785Z" stroke="black" stroke-opacity="0.6" stroke-width="3"/>
</g>
<g id="Nunavut">
<path d="M587.387 88.1625L582.679 89.0938L579.77 97.8278L576.601 98.105L577.494 90.0668L565.578 92.7196L558.845 100.178L548.833 99.976L551.545 107.686L542.023 107.441L538.324 113.089L540.704 116.555L536.92 115.289L538.908 125.698L535.363 127.606L527.428 121.911L527.89 127.195L524.427 129.601L531.716 134.288L521.111 134.125L519.003 140.152L508.989 146.301L512.48 149.709L516.985 147.198L514.721 151.591L519.856 155.388L518.739 161.316L535.328 151.385L532.274 159.054L522.539 162.022L531.424 167.595L533.066 162.179L534.733 168.915L547.445 163.038L548.749 166.079L559.797 153.49L565.11 153.545L559.647 164.087L550.276 171.217L562.036 185.018L546.871 174.723L535.368 175.729L538.922 186.534L545.623 190.129L552.102 204.404L564.802 204.319L559.978 210.013L556.532 207.12L546.662 208.542L540.781 219.652L542.077 228.525L553.421 225.416L554.763 234.817L561.481 238.462L564.536 231.845L566.157 238.053L555.359 241.634L548.834 233.219L541.454 233.865L544.575 245.213L548.491 247.546L538.427 259.503L539.767 268.891L548.317 269.74L554.239 264.43L567.238 268.656L566.682 262.303L573.872 260.077L575.219 263.153L577.843 257.093L584.67 256.496L587.504 264.714L598.494 251.612L599.523 245.12L595.854 239.688L593.182 245.194L588.802 237.111L575.389 240.92L573.542 232.122L577.592 235.975L585.543 236.357L592.356 229.372L587.894 220.803L598.825 212.964L593.844 210.777L598.471 208.775L592.586 201.888L597.352 201.471L595.677 195.229L589.532 191.611L584.393 193.1L586.125 188.715L594.948 186.904L591.456 183.483L579.22 188.267L594.447 174.794L592.495 170.731L596.324 172.513L599.903 158.968L593.43 162.728L599.767 151.032L604.904 119.405L602.06 117.018L590.219 132.844L594.535 121.351L587.808 123.537L595.897 119.115L601.705 107.024L597.239 92.0272L592.567 93.5138L587.387 88.1625ZM501.842 155.405L501.04 158.112L506.035 160.311L503.221 164.79L498.284 163.105L502.932 173.801L497.747 174.774L496.416 183.89L502.528 188.913L496.551 185.436L497.38 194.908L504.369 206.697L505.713 202.775L515.1 201.915L515.592 209.468L507.221 210.954L513.982 221.478L518.214 221.627L515.921 225.541L523.766 230.646L532.789 224.585L536.187 227.963L540.756 207.5L547.248 203.219L546.045 195.403L537.781 191.892L530.987 174.463L526.131 173.849L528.97 181.522L522.959 173.049L519.79 173.326L508.181 155.318L501.842 155.405ZM481.294 186.251L480.114 191.159L487.481 196.293L486.147 187.424L481.294 186.251ZM463.756 203.135L457.206 206.902L465.636 224.63L457.74 225.32L460.818 230.375L475.24 231.736L477.474 239.462L483.686 243.71L487.144 241.252L484.278 220.363L477.643 217.216L474.435 210.667L470.51 214.166L463.756 203.135ZM434.787 216.213L433.125 227.474L436.432 228.782L439.571 222.677L434.787 216.213ZM488.893 218.362L490.334 229.351L496.151 234.712L492.422 234.518L495.626 241.029L507.778 234.681L504.811 224.955L488.893 218.362ZM451.319 242.27L453.453 254.796L457.88 257.031L454.542 243.066L451.319 242.27ZM502.966 240.946L499.823 247.012L514.727 248.383L516.227 241.344L502.966 240.946ZM527.771 240.373L526.828 247.844L535.641 251.838L534.618 246.085L527.771 240.373ZM432.934 261.344L423.725 271.655L429.836 280.677L424.774 283.198L432.941 291.988L423.782 290.115L421.782 307.301L429.269 304.464L432.818 308.387L445.841 306.209L451.952 285.56L447.325 281.186L441.213 283.876L434.971 279.137L437.956 276.759L435.6 262.149L432.934 261.344ZM502.427 258.978L498.354 266.723L507.452 273.835L506.839 278.693L520.75 274.801L528.623 292.097L526.128 300.223L530.569 302.471L530.699 309.887L546.377 314.32L550.545 307.073L553.853 308.381L552.637 312.733L568.893 311.311L582.629 305.863L585.897 300.786L594.68 304.302L601.125 299.492L604.27 287.076L600.587 287.398L601.995 279.315L594.482 277.855L594.678 274.163L586.469 271.129L574.223 275.953L571.042 282.023L562.992 286.441L563.921 291.125L558.229 286.299L550.484 288.574L550.207 285.404L547.025 285.682L546.966 290.492L541.341 280.946L532.843 280.093L540.696 273.575L524.123 264.987L521.322 269.466L515.399 261.998L502.427 258.978ZM533.152 259.445L536.257 270.756L538.872 270.527L533.152 259.445ZM479.161 264.688L473.924 270.99L476.251 273.409L482.05 267.591L479.161 264.688ZM459.45 269.048L455.474 271.513L458.595 277.07L464.34 276.568L459.45 269.048ZM483.857 269.549L476.951 275.477L484.357 288.023L474.751 275.098L471.727 276.441L476.136 290.339L471.658 287.523L465.991 295.447L484.723 292.211L478.117 301.268L482.594 309.862L496.338 303.907L496.704 277.969L489.576 269.049L485.311 274.746L483.857 269.549ZM467.139 278.452L457.756 279.793L459.707 283.855L467.381 281.067L467.139 278.452ZM466.103 284.854L462.36 289.986L467.171 290.085L470.914 284.952L466.103 284.854ZM512.572 283.983L510.047 285.243L513.583 289.166L517.138 287.817L512.572 283.983ZM503.772 292.154L498.781 295.785L501.2 299.249L507.12 293.926L503.772 292.154ZM512.699 291.373L508.117 293.891L502.403 307.065L514.808 315.484L522.576 313.766L521.29 299.075L512.699 291.373ZM454.509 296.984L452.536 304.545L461.633 305.866L458.192 296.649L454.509 296.984ZM626.6 313.093L606.284 316.467L609.303 326.799L614.392 330.068L617.746 338.734L622.937 337.241L623.55 332.383L642.656 327.037L626.6 313.093ZM524.042 324.74L516.368 327.528L513.626 332.534L516.045 335.997L510.242 335.985L512.265 359.104L518.975 375.424L524.295 375.997L527.912 356.657L536.043 359.101L545.552 335.013L541.603 326.372L532.429 329.811L524.042 324.74ZM600.723 319.07L588.389 323.344L582.956 333.338L582.228 355.58L587.178 357.264L583.193 366.611L588.465 371.98L594.3 372.509L595.218 382.999L590.912 382.298L592.783 379.498L580.149 367.423L574.36 337.751L579.705 326.74L575.266 323.921L565.879 325.82L555.629 341L553.39 363.921L557.992 386.255L572.32 387.131L577.454 390.916L572.311 392.963L566.205 389.783L562.789 392.718L563.901 399.503L573.608 407.64L582.567 407.375L583.139 402.04L595.768 413.609L601.952 405.666L604.797 408.066L616.657 404.912L622.775 408.091L627.219 403.988L630.652 406.882L633.511 403.957L629.41 399.511L638.25 397.738L641.143 400.692L648.207 396.867L642.229 388.923L638.584 389.242L638.307 386.072L651.755 389.207L657.209 396.651L663.239 393.474L663.228 399.279L678.451 404.298L673.29 411.631L674.402 418.403L681.285 412.516L681.897 407.19L697.58 411.09L697.948 415.304L708.866 419.621L721.746 434.362L721.108 450.806L713.751 463.591L725.934 469.914L726.995 475.664L722.751 475.516L722.126 480.843L717.412 481.255L714.66 486.301L696.384 488.367L698.705 496.644L692.245 501.442L697.843 510.977L709.328 515.257L718.533 505.492L716.072 501.993L718.503 499.664L727.659 501.499L731.592 492.156L734.383 499.872L735.644 496.048L756.551 505.802L764.921 504.589L766.172 512.959L772.275 516.1L792.546 512.21L804.134 518.104L832.333 514.04L834.44 508.012L821.092 500.674L801.206 496.662L787.828 488.846L791.659 484.265L800.655 490.36L805.331 488.912L815.146 492.806L824.346 489.365L833.618 492.229L831.124 482.422L822.499 474.178L829.113 476.794L828.697 472.039L820.636 464.758L809.855 462.585L812.883 460.709L809.821 456.264L806.404 459.199L799.966 452.373L791.098 453.668L778.733 444.674L774.152 447.204L767.806 441.435L768.566 437.655L772.057 441.063L776.456 437.484L766.9 430.931L771.711 431.03L768.113 426.54L773.168 423.501L788.563 430.633L792.345 425.498L790.801 432.035L806.479 442.246L811.396 437.622L816.841 439.781L810.576 422.916L813.786 423.103L816.935 416.516L814.615 408.253L809.888 408.666L809.467 403.86L813.621 402.977L811.061 397.89L813.965 394.441L801.579 392.33L795.381 399.82L793.526 390.477L787.772 397.85L780.73 389.467L773.765 388.479L770.874 391.939L770.183 384.04L763.062 393.142L754.66 392.799L749.252 385.871L730.526 389.626L737.964 383.703L731.433 375.808L741.524 369.64L740.184 367.082L725.142 370.515L731.743 360.952L720.074 354.571L721.051 359.809L708.708 363.525L717.79 352.654L705.881 349.463L701.159 355.719L702.842 350.767L696.992 356.603L695.744 348.272L692.495 347.478L691.45 353.933L689.674 351.439L685.752 354.976L688.077 357.37L691.545 354.431L689.802 358.829L686.023 358.069L684.49 352.412L688.888 347.794L679.702 340.118L675.954 351.575L666.11 341.879L660.537 350.274L663.546 342.09L660.325 335.983L655.189 337.51L654.316 333.912L647.765 331.29L645.334 333.62L638.678 330.527L629.217 336.627L630.55 351.859L627.115 343.161L622.07 345.732L622.262 341.988L619.277 344.366L618.696 355.532L616.082 355.761L616.747 345.12L611.778 330.751L606.353 329.122L600.723 319.07ZM492.796 329.591L487.699 332.153L489.046 335.243L498.161 330.679L492.796 329.591ZM441.559 336.19L436.698 340.861L446.985 355.778L454.213 341.965L447.854 335.6L441.559 336.19ZM484.066 332.471L476.825 334.715L477.927 340.929L473.866 342.882L473.904 349.241L480.012 352.888L478.743 361.232L474.671 361.276L469.359 351.742L465.249 359.504L481.234 378.726L485.888 389.941L493.689 394.543L496.579 385.292L499.899 386.598L508.28 380.022L508.098 365.78L500.65 353.199L495 354.784L503.19 339.797L498.909 333.289L486.142 338.094L484.066 332.471ZM431.082 343.43L427.907 373.315L430.559 379.446L426.251 385.095L423.169 361.588L415.194 349.054L404.445 419.206L347.967 407.448L349.117 415.1L359.179 427.451L370.663 431.719L374.141 447.283L402.991 451.108L414.59 444.822L423.034 444.602L430.155 435.5L432.108 439.575L443.547 443.327L440.217 447.852L455.34 451.281L468.144 446.447L466.764 437.063L463.456 435.742L459.606 439.805L456.819 432.128L462.894 434.804L468.501 426.354L469.474 431.54L474.942 427.868L474.328 432.726L477.695 429.224L477.43 420.261L473.318 421.179L459.273 411.812L449.921 395.723L453.238 391.2L449.381 383.616L445.871 355.356L436.679 346.135L434.113 347.957L431.082 343.43ZM503.5 349.275L501.769 353.673L505.167 356.011L508.057 352.551L503.5 349.275ZM520.787 377.889L513.019 385.97L516.944 388.262L515.201 392.661L512.356 390.261L508.992 394.243L509.444 405.345L514.529 408.575L509.671 414.324L510.815 421.015L523.376 432.11L525.94 430.847L530.597 435.711L533.582 433.333L535.533 437.396L531.157 436.182L527.5 448.682L531.463 451.543L535.621 444.777L537.101 455.763L530.127 466.398L522.085 471.348L525.62 487.426L520.534 484.183L517.588 486.557L518.222 463.245L501.237 456.784L501.56 460.47L495.39 462.048L498.74 470.222L505.706 471.222L509.288 475.662L506.258 477.524L496.121 470.412L494.954 475.318L479.405 472.952L477.069 476.364L465.534 476.854L452.416 466.366L450.509 468.611L438.658 460.142L434.898 447.278L413.686 452.289L410.084 459.487L415.128 462.24L430.583 458.2L432.406 454.846L435.953 459.34L413.757 471.346L420.397 492.944L415.92 490.141L414.188 494.526L410.791 492.187L412.241 484.139L396.805 464.362L390.741 468.048L353.02 459.714L351.667 456.118L357.044 451.415L364.651 453.943L366.346 448.99L362.852 439.31L354.877 432.58L347.535 433.223L334.765 426.419L320.988 410.484L308.722 443.851L365.108 515.246L383.125 520.306L392.938 536.627L464.066 556.504L462.173 652.671C489.678 653.862 516.631 654.1 544.375 649.868L545.747 638.996L549.163 636.061L551.572 615.23L557.465 609.442L554.051 607.066L567.075 592.733L564.778 590.818L570.385 588.73L565.303 584.941L575.162 582.508L580.499 571.406L567.2 564.194L564.166 566.017L550.952 559.772L546.843 561.17L550.674 556.602L578.361 564.775L584.391 561.599L585.24 553.058L595.275 552.18L603.556 545.067L608.36 520.896L589.876 521.475L570.926 509.913L581.476 510.029L593.707 516.906L604.811 516.974L614.23 497.645L605.361 493.149L604.429 488.426L624.371 493.083L625.69 489.773L633.757 491.184L629.902 483.613L633.863 486.461L640.318 481.611L644.919 468.029L647.534 467.8L645.96 455.744L639.232 451.541L628.384 436.142L633.195 436.24L637.215 428.487L632.598 423.632L633.859 419.795L624.723 418.477L620.436 411.464L597.398 413.999L600.054 425.96L606.727 430.129L607.877 436.897L601.163 439.082L604.638 454.62L601.437 460.159L601.848 471.239L597.133 471.651L598.48 474.728L594.509 477.711L582.392 460.267L581.473 449.764L588.107 452.898L572.067 432.602L566.739 437.873L569.421 456.662L565.783 457.5L555.908 435.574L559.659 429.494L551.014 427.562L548.124 431.022L542.99 426.187L545.99 418.496L542.544 415.603L547.014 417.887L549.4 415.043L538.352 403.296L535.095 390.401L525.216 380.15L523.301 382.434L520.787 377.889ZM656.399 399.851L651.262 401.378L649.621 406.794L656.399 399.851ZM644.957 401.41L634.82 407.05L639.815 409.249L644.957 401.41ZM666.073 401.68L662.192 405.694L665.729 409.618L668.916 404.067L666.073 401.68ZM584.839 409.306L581.487 413.274L587.873 413.274L584.839 409.306ZM652.374 408.15L651.935 421.382L655.769 416.839L655.034 408.437L652.374 408.15ZM500.156 426.181L494.925 433.002L493.142 443.182L488.891 442.515L487.156 446.861L514.083 458.816L523.291 449.531L517.787 446.857L517.935 442.61L500.156 426.181ZM517.485 431.534L515.149 434.946L519.667 438.226L522.005 434.827L517.485 431.534ZM696.674 419.584L697.455 428.502L707.695 424.931L696.674 419.584ZM682.106 421.898L675.563 426.184L677.64 443.987L682.171 447.265L694.678 445.132L696.648 437.532L689.9 427.007L691.026 421.636L682.106 421.898ZM481.354 446.863L477.763 448.242L480.835 453.245L481.354 446.863ZM467.4 450.707L465.014 453.551L468.506 456.973L470.852 454.118L467.4 450.707ZM443.986 454.872L441.649 458.283L445.524 460.581L443.986 454.872ZM738.371 432.713L753.558 436.423L755.08 442.406L747.185 448.005L742.896 447.341L744.805 454.174L741.646 455.008L735.039 443.874L726.178 445.856L735.042 443.912L732.033 434.592L738.371 432.713ZM596.934 451.567L592.448 454.596L596.82 462.134L596.934 451.567ZM745.044 468.774L757.094 471.797L764.186 478.54L758.845 478.163L751.928 484.404L746.927 479.764L750.446 478.898L745.044 468.774ZM628.299 495.856L634.265 503.813L640.896 501.117L628.299 495.856ZM622.171 498.509L625.568 507.211L629.171 505.817L622.171 498.509ZM618.805 502.011L614.264 505.005L618.078 517.89L618.743 543.738L612.407 555.875L614.281 558.906L629.561 552.855L633.238 564.169L648.479 545.37L646.012 541.352L649.292 536.261L672.825 545.915L679.694 533.64L673.44 528.915L672.191 532.738L662.933 535.665L665.686 530.632L658.519 521.261L629.538 510.019L627.417 516.035L618.805 502.011ZM845.558 508.533L841.718 513.154L849.424 516.674L852.409 514.296L845.558 508.533ZM775.454 516.834L782.829 522.5L786.194 518.531L775.454 516.834ZM709.272 527.377L716.454 530.982L719.3 527.019L709.272 527.377ZM702.343 532.736L700.006 536.148L707.417 542.369L710.9 534.117L702.343 532.736ZM670.597 556.654L660.043 562.862L656.169 560.565L651.521 574.204L656.146 578.552L667.535 575.945L672.277 563.389L670.597 556.654ZM829.441 548.042L826.563 557.279L830.45 559.575L833.17 548.235L829.441 548.042ZM698.383 560.027L691.924 564.826L692.054 572.242L700.312 582.077L703.767 579.138L698.383 560.027ZM747.866 684.695L744.783 691.886L743.52 689.321L740.972 702.776L744.86 698.709L747.189 701.142L752.933 693.809L747.866 684.695ZM757.339 720.874L750.459 726.8L753.226 728.156L759.194 723.387L757.339 720.874ZM739.468 770.003L732.14 777.033L756.082 778.613L747.872 769.333L739.468 770.003ZM775.689 785.378L773.626 791.908L779.982 786.08L775.689 785.378Z" fill="#EEEEEE"/>
<path d="M468.653 241.312L477.416 244.739M683.341 412.271L690.376 420.135M726.178 445.856L721.011 447.023M726.178 445.856L735.039 443.874L741.646 455.008L744.805 454.174L742.896 447.341L747.185 448.005L755.08 442.406L753.558 436.423L738.371 432.713L732.033 434.592L735.042 443.912L726.178 445.856ZM742.495 455.22L745.044 468.774M745.044 468.774L757.094 471.797L764.186 478.54L758.845 478.163L751.928 484.404L746.927 479.764L750.446 478.898L745.044 468.774ZM741.031 691.136L737.154 695.189M587.387 88.1625L582.679 89.0938L579.77 97.8278L576.601 98.105L577.494 90.0668L565.578 92.7196L558.845 100.178L548.833 99.976L551.545 107.686L542.023 107.441L538.324 113.089L540.704 116.555L536.92 115.289L538.908 125.698L535.363 127.606L527.428 121.911L527.89 127.195L524.427 129.601L531.716 134.288L521.111 134.125L519.003 140.152L508.989 146.301L512.48 149.709L516.985 147.198L514.721 151.591L519.856 155.388L518.739 161.316L535.328 151.385L532.274 159.054L522.539 162.022L531.424 167.595L533.066 162.179L534.733 168.915L547.445 163.038L548.749 166.079L559.797 153.49L565.11 153.545L559.647 164.087L550.276 171.217L562.036 185.018L546.871 174.723L535.368 175.729L538.922 186.534L545.623 190.129L552.102 204.404L564.802 204.319L559.978 210.013L556.532 207.12L546.662 208.542L540.781 219.652L542.077 228.525L553.421 225.416L554.763 234.817L561.481 238.462L564.536 231.845L566.157 238.053L555.359 241.634L548.834 233.219L541.454 233.865L544.575 245.213L548.491 247.546L538.427 259.503L539.767 268.891L548.317 269.74L554.239 264.43L567.238 268.656L566.682 262.303L573.872 260.077L575.219 263.153L577.843 257.093L584.67 256.496L587.504 264.714L598.494 251.612L599.523 245.12L595.854 239.688L593.182 245.194L588.802 237.111L575.389 240.92L573.542 232.122L577.592 235.975L585.543 236.357L592.356 229.372L587.894 220.803L598.825 212.964L593.844 210.777L598.471 208.775L592.586 201.888L597.352 201.471L595.677 195.229L589.532 191.611L584.393 193.1L586.125 188.715L594.948 186.904L591.456 183.483L579.22 188.267L594.447 174.794L592.495 170.731L596.324 172.513L599.903 158.968L593.43 162.728L599.767 151.032L604.904 119.405L602.06 117.018L590.219 132.844L594.535 121.351L587.808 123.537L595.897 119.115L601.705 107.024L597.239 92.0272L592.567 93.5138L587.387 88.1625ZM501.842 155.405L501.04 158.112L506.035 160.311L503.221 164.79L498.284 163.105L502.932 173.801L497.747 174.774L496.416 183.89L502.528 188.913L496.551 185.436L497.38 194.908L504.369 206.697L505.713 202.775L515.1 201.915L515.592 209.468L507.221 210.954L513.982 221.478L518.214 221.627L515.921 225.541L523.766 230.646L532.789 224.585L536.187 227.963L540.756 207.5L547.248 203.219L546.045 195.403L537.781 191.892L530.987 174.463L526.131 173.849L528.97 181.522L522.959 173.049L519.79 173.326L508.181 155.318L501.842 155.405ZM481.294 186.251L480.114 191.159L487.481 196.293L486.147 187.424L481.294 186.251ZM463.756 203.135L457.206 206.902L465.636 224.63L457.74 225.32L460.818 230.375L475.24 231.736L477.474 239.462L483.686 243.71L487.144 241.252L484.278 220.363L477.643 217.216L474.435 210.667L470.51 214.166L463.756 203.135ZM434.787 216.213L433.125 227.474L436.432 228.782L439.571 222.677L434.787 216.213ZM488.893 218.362L490.334 229.351L496.151 234.712L492.422 234.518L495.626 241.029L507.778 234.681L504.811 224.955L488.893 218.362ZM451.319 242.27L454.542 243.066L457.88 257.031L453.453 254.796L451.319 242.27ZM502.966 240.946L499.823 247.012L514.727 248.383L516.227 241.344L502.966 240.946ZM527.771 240.373L534.618 246.085L535.641 251.838L526.828 247.844L527.771 240.373ZM432.934 261.344L435.6 262.149L437.956 276.759L434.971 279.137L441.213 283.876L447.325 281.186L451.952 285.56L445.841 306.209L432.818 308.387L429.269 304.464L421.782 307.301L423.782 290.115L432.941 291.988L424.774 283.198L429.836 280.677L423.725 271.655L432.934 261.344ZM502.427 258.978L498.354 266.723L507.452 273.835L506.839 278.693L520.75 274.801L528.623 292.097L526.128 300.223L530.569 302.471L530.699 309.887L546.377 314.32L550.545 307.073L553.853 308.381L552.637 312.733L568.893 311.311L582.629 305.863L585.897 300.786L594.68 304.302L601.125 299.492L604.27 287.076L600.587 287.398L601.995 279.315L594.482 277.855L594.678 274.163L586.469 271.129L574.223 275.953L571.042 282.023L562.992 286.441L563.921 291.125L558.229 286.299L550.484 288.574L550.207 285.404L547.025 285.682L546.966 290.492L541.341 280.946L532.843 280.093L540.696 273.575L524.123 264.987L521.322 269.466L515.399 261.998L502.427 258.978ZM533.152 259.445L536.257 270.756L538.872 270.527L533.152 259.445ZM479.161 264.688L473.924 270.99L476.251 273.409L482.05 267.591L479.161 264.688ZM459.45 269.048L455.474 271.513L458.595 277.07L464.34 276.568L459.45 269.048ZM483.857 269.549L476.951 275.477L484.357 288.023L474.751 275.098L471.727 276.441L476.136 290.339L471.658 287.523L465.991 295.447L484.723 292.211L478.117 301.268L482.594 309.862L496.338 303.907L496.704 277.969L489.576 269.049L485.311 274.746L483.857 269.549ZM467.139 278.452L457.756 279.793L459.707 283.855L467.381 281.067L467.139 278.452ZM466.103 284.854L462.36 289.986L467.171 290.085L470.914 284.952L466.103 284.854ZM512.572 283.983L510.047 285.243L513.583 289.166L517.138 287.817L512.572 283.983ZM503.772 292.154L498.781 295.785L501.2 299.249L507.12 293.926L503.772 292.154ZM512.699 291.373L508.117 293.891L502.403 307.065L514.808 315.484L522.576 313.766L521.29 299.075L512.699 291.373ZM454.509 296.984L458.192 296.649L461.633 305.866L452.536 304.545L454.509 296.984ZM626.6 313.093L606.284 316.467L609.303 326.799L614.392 330.068L617.746 338.734L622.937 337.241L623.55 332.383L642.656 327.037L626.6 313.093ZM524.042 324.74L516.368 327.528L513.626 332.534L516.045 335.997L510.242 335.985L512.265 359.104L518.975 375.424L524.295 375.997L527.912 356.657L536.043 359.101L545.552 335.013L541.603 326.372L532.429 329.811L524.042 324.74ZM600.723 319.07L588.389 323.344L582.956 333.338L582.228 355.58L587.178 357.264L583.193 366.611L588.465 371.98L594.3 372.509L595.218 382.999L590.912 382.298L592.783 379.498L580.149 367.423L574.36 337.751L579.705 326.74L575.266 323.921L565.879 325.82L555.629 341L553.39 363.921L557.992 386.255L572.32 387.131L577.454 390.916L572.311 392.963L566.205 389.783L562.789 392.718L563.901 399.503L573.608 407.64L582.567 407.375L583.139 402.04L595.768 413.609L601.952 405.666L604.797 408.066L616.657 404.912L622.775 408.091L627.219 403.988L630.652 406.882L633.511 403.957L629.41 399.511L638.25 397.738L641.143 400.692L648.207 396.867L642.229 388.923L638.584 389.242L638.307 386.072L651.755 389.207L657.209 396.651L663.239 393.474L663.228 399.279L678.451 404.298L673.29 411.631L674.402 418.403L681.285 412.516L681.897 407.19L697.58 411.09L697.948 415.304L708.866 419.621L721.746 434.362L721.108 450.806L713.751 463.591L725.934 469.914L726.995 475.664L722.751 475.516L722.126 480.843L717.412 481.255L714.66 486.301L696.384 488.367L698.705 496.644L692.245 501.442L697.843 510.977L709.328 515.257L718.533 505.492L716.072 501.993L718.503 499.664L727.659 501.499L731.592 492.156L734.383 499.872L735.644 496.048L756.551 505.802L764.921 504.589L766.172 512.959L772.275 516.1L792.546 512.21L804.134 518.104L832.333 514.04L834.44 508.012L821.092 500.674L801.206 496.662L787.828 488.846L791.659 484.265L800.655 490.36L805.331 488.912L815.146 492.806L824.346 489.365L833.618 492.229L831.124 482.422L822.499 474.178L829.113 476.794L828.697 472.039L820.636 464.758L809.855 462.585L812.883 460.709L809.821 456.264L806.404 459.199L799.966 452.373L791.098 453.668L778.733 444.674L774.152 447.204L767.806 441.435L768.566 437.655L772.057 441.063L776.456 437.484L766.9 430.931L771.711 431.03L768.113 426.54L773.168 423.501L788.563 430.633L792.345 425.498L790.801 432.035L806.479 442.246L811.396 437.622L816.841 439.781L810.576 422.916L813.786 423.103L816.935 416.516L814.615 408.253L809.888 408.666L809.467 403.86L813.621 402.977L811.061 397.89L813.965 394.441L801.579 392.33L795.381 399.82L793.526 390.477L787.772 397.85L780.73 389.467L773.765 388.479L770.874 391.939L770.183 384.04L763.062 393.142L754.66 392.799L749.252 385.871L730.526 389.626L737.964 383.703L731.433 375.808L741.524 369.64L740.184 367.082L725.142 370.515L731.743 360.952L720.074 354.571L721.051 359.809L708.708 363.525L717.79 352.654L705.881 349.463L701.159 355.719L702.842 350.767L696.992 356.603L695.744 348.272L692.495 347.478L691.45 353.933L689.674 351.439L685.752 354.976L688.077 357.37L691.545 354.431L689.802 358.829L686.023 358.069L684.49 352.412L688.888 347.794L679.702 340.118L675.954 351.575L666.11 341.879L660.537 350.274L663.546 342.09L660.325 335.983L655.189 337.51L654.316 333.912L647.765 331.29L645.334 333.62L638.678 330.527L629.217 336.627L630.55 351.859L627.115 343.161L622.07 345.732L622.262 341.988L619.277 344.366L618.696 355.532L616.082 355.761L616.747 345.12L611.778 330.751L606.353 329.122L600.723 319.07ZM492.796 329.591L487.699 332.153L489.046 335.243L498.161 330.679L492.796 329.591ZM441.559 336.19L436.698 340.861L446.985 355.778L454.213 341.965L447.854 335.6L441.559 336.19ZM484.066 332.471L476.825 334.715L477.927 340.929L473.866 342.882L473.904 349.241L480.012 352.888L478.743 361.232L474.671 361.276L469.359 351.742L465.249 359.504L481.234 378.726L485.888 389.941L493.689 394.543L496.579 385.292L499.899 386.598L508.28 380.022L508.098 365.78L500.65 353.199L495 354.784L503.19 339.797L498.909 333.289L486.142 338.094L484.066 332.471ZM431.082 343.43L434.113 347.957L436.679 346.135L445.871 355.356L449.381 383.616L453.238 391.2L449.921 395.723L459.273 411.812L473.318 421.179L477.43 420.261L477.695 429.224L474.328 432.726L474.942 427.868L469.474 431.54L468.501 426.354L462.894 434.804L456.819 432.128L459.606 439.805L463.456 435.742L466.764 437.063L468.144 446.447L455.34 451.281L440.217 447.852L443.547 443.327L432.108 439.575L430.155 435.5L423.034 444.602L414.59 444.822L402.991 451.108L374.141 447.283L370.663 431.719L359.179 427.451L349.117 415.1L347.967 407.448L404.445 419.206L415.194 349.054L423.169 361.588L426.251 385.095L430.559 379.446L427.907 373.315L431.082 343.43ZM503.5 349.275L501.769 353.673L505.167 356.011L508.057 352.551L503.5 349.275ZM520.787 377.889L523.301 382.434L525.216 380.15L535.095 390.401L538.352 403.296L549.4 415.043L547.014 417.887L542.544 415.603L545.99 418.496L542.99 426.187L548.124 431.022L551.014 427.562L559.659 429.494L555.908 435.574L565.783 457.5L569.421 456.662L566.739 437.873L572.067 432.602L588.107 452.898L581.473 449.764L582.392 460.267L594.509 477.711L598.48 474.728L597.133 471.651L601.848 471.239L601.437 460.159L604.638 454.62L601.163 439.082L607.877 436.897L606.727 430.129L600.054 425.96L597.398 413.999L620.436 411.464L624.723 418.477L633.859 419.795L632.598 423.632L637.215 428.487L633.195 436.24L628.384 436.142L639.232 451.541L645.96 455.744L647.534 467.8L644.919 468.029L640.318 481.611L633.863 486.461L629.902 483.613L633.757 491.184L625.69 489.773L624.371 493.083L604.429 488.426L605.361 493.149L614.23 497.645L604.811 516.974L593.707 516.906L581.476 510.029L570.926 509.913L589.876 521.475L608.36 520.896L603.556 545.067L595.275 552.18L585.24 553.058L584.391 561.599L578.361 564.775L550.674 556.602L546.843 561.17L550.952 559.772L564.166 566.017L567.2 564.194L580.499 571.406L575.162 582.508L565.303 584.941L570.385 588.73L564.778 590.818L567.075 592.733L554.051 607.066L557.465 609.442L551.572 615.23L549.163 636.061L545.747 638.996L544.375 649.868C516.631 654.1 489.678 653.862 462.173 652.671L464.066 556.504L392.938 536.627L383.125 520.306L365.108 515.246L308.722 443.851L320.988 410.484L334.765 426.419L347.535 433.223L354.877 432.58L362.852 439.31L366.346 448.99L364.651 453.943L357.044 451.415L351.667 456.118L353.02 459.714L390.741 468.048L396.805 464.362L412.241 484.139L410.791 492.187L414.188 494.526L415.92 490.141L420.397 492.944L413.757 471.346L435.953 459.34L432.406 454.846L430.583 458.2L415.128 462.24L410.084 459.487L413.686 452.289L434.898 447.278L438.658 460.142L450.509 468.611L452.416 466.366L465.534 476.854L477.069 476.364L479.405 472.952L494.954 475.318L496.121 470.412L506.258 477.524L509.288 475.662L505.706 471.222L498.74 470.222L495.39 462.048L501.56 460.47L501.237 456.784L518.222 463.245L517.588 486.557L520.534 484.183L525.62 487.426L522.085 471.348L530.127 466.398L537.101 455.763L535.621 444.777L531.463 451.543L527.5 448.682L531.157 436.182L535.533 437.396L533.582 433.333L530.597 435.711L525.94 430.847L523.376 432.11L510.815 421.015L509.671 414.324L514.529 408.575L509.444 405.345L508.992 394.243L512.356 390.261L515.201 392.661L516.944 388.262L513.019 385.97L520.787 377.889ZM656.399 399.851L651.262 401.378L649.621 406.794L656.399 399.851ZM644.957 401.41L634.82 407.05L639.815 409.249L644.957 401.41ZM666.073 401.68L662.192 405.694L665.729 409.618L668.916 404.067L666.073 401.68ZM584.839 409.306L581.487 413.274L587.873 413.274L584.839 409.306ZM652.374 408.15L651.935 421.382L655.769 416.839L655.034 408.437L652.374 408.15ZM500.156 426.181L494.925 433.002L493.142 443.182L488.891 442.515L487.156 446.861L514.083 458.816L523.291 449.531L517.787 446.857L517.935 442.61L500.156 426.181ZM517.485 431.534L515.149 434.946L519.667 438.226L522.005 434.827L517.485 431.534ZM696.674 419.584L697.455 428.502L707.695 424.931L696.674 419.584ZM682.106 421.898L675.563 426.184L677.64 443.987L682.171 447.265L694.678 445.132L696.648 437.532L689.9 427.007L691.026 421.636L682.106 421.898ZM481.354 446.863L477.763 448.242L480.835 453.245L481.354 446.863ZM467.4 450.707L465.014 453.551L468.506 456.973L470.852 454.118L467.4 450.707ZM443.986 454.872L441.649 458.283L445.524 460.581L443.986 454.872ZM596.934 451.567L592.448 454.596L596.82 462.134L596.934 451.567ZM628.299 495.856L634.265 503.813L640.896 501.117L628.299 495.856ZM622.171 498.509L625.568 507.211L629.171 505.817L622.171 498.509ZM618.805 502.011L614.264 505.005L618.078 517.89L618.743 543.738L612.407 555.875L614.281 558.906L629.561 552.855L633.238 564.169L648.479 545.37L646.012 541.352L649.292 536.261L672.825 545.915L679.694 533.64L673.44 528.915L672.191 532.738L662.933 535.665L665.686 530.632L658.519 521.261L629.538 510.019L627.417 516.035L618.805 502.011ZM845.558 508.533L841.718 513.154L849.424 516.674L852.409 514.296L845.558 508.533ZM775.454 516.834L782.829 522.5L786.194 518.531L775.454 516.834ZM709.272 527.377L716.454 530.982L719.3 527.019L709.272 527.377ZM702.343 532.736L700.006 536.148L707.417 542.369L710.9 534.117L702.343 532.736ZM670.597 556.654L672.277 563.389L667.535 575.945L656.146 578.552L651.521 574.204L656.169 560.565L660.043 562.862L670.597 556.654ZM829.441 548.042L833.17 548.235L830.45 559.575L826.563 557.279L829.441 548.042ZM698.383 560.027L691.924 564.826L692.054 572.242L700.312 582.077L703.767 579.138L698.383 560.027ZM747.866 684.695L744.783 691.886L743.52 689.321L740.972 702.776L744.86 698.709L747.189 701.142L752.933 693.809L747.866 684.695ZM757.339 720.874L750.459 726.8L753.226 728.156L759.194 723.387L757.339 720.874ZM739.468 770.003L747.872 769.333L756.082 778.613L732.14 777.033L739.468 770.003ZM775.689 785.378L779.982 786.08L773.626 791.908L775.689 785.378Z" stroke="black" stroke-opacity="0.6" stroke-width="3"/>
</g>
<path id="Nova_Scotia" d="M1086.04 756.147L1084.64 758.386L1085.95 761.466L1084.55 763.667L1085.45 785.806L1094.44 791.901L1108.33 781.687L1106.66 774.432L1110.67 771.964L1106.57 767.531L1107.55 766.407L1100.4 769.707L1098.73 768.776L1094.33 772.355L1094.06 763.393L1086.04 756.147ZM1090.33 793.3L1086.93 796.792L1082.57 795.044L1076.97 804.013L1070.66 804.007L1067.63 805.869L1067.38 808.527L1055.7 807.952L1050.18 817.42L1051.73 817.285L1048.71 830.742L1064.1 819.41L1067.79 819.606L1059.78 830.89L1058.2 831.029L1056.85 827.433L1049.34 838.089L1040.16 859.552L1043.86 860.306L1042.83 866.707L1050.84 873.434L1053.33 871.619L1057.71 873.352L1058.5 876.49L1063.98 872.284L1063.7 869.114L1066.58 865.668L1071.25 846.794L1067.65 842.317L1070.51 838.392L1074.3 839.658L1078.17 835.592L1076.86 832.512L1085.52 822.808L1095.12 805.581L1103.25 795.883L1095.98 797.559L1090.33 793.3Z" fill="#EEEEEE" stroke="black" stroke-opacity="0.6" stroke-width="3"/>
<path id="Ontario" d="M623.985 711.362L575.693 788.124L554.733 814.253L561.424 896.67L566.564 895.182L569.902 909.16L573.255 910.984L581.157 910.812L587.17 912.922L592.17 909.848L600.121 910.23L607.525 916.374L607.15 918.017L612.101 914.376L619.954 919.572L625.271 919.665L632.653 913.695L635.031 916.695L644.988 915.823L647.226 917.225L653.472 916.51L655.494 909.061L658.859 905.092L661.2 907.523L663.161 905.754L664.996 896.608L667.14 896.939L665.638 903.953L670.18 895.635L668.319 892.603L669.248 890.912L677.944 893.878L692.513 891.564L699.14 894.179L699.929 897.265L710.274 906.904L724.807 904.036L725.362 910.389L733.418 917.605L731.87 924.09L737.795 925.65L736.988 934.226L743.728 933.078L753.647 936.963L758.184 934.968L786.406 931.46L788.689 933.377L796.031 932.735L799.895 928.683L811.928 939.226L816.927 941.464L817.574 943.524L826.289 951.747L824.275 959.884L819.09 960.857L813.023 957.674L808.257 958.09L798.511 948.906L792.866 950.997L801.578 959.194L803.154 965.926L798.908 972.141L804.185 995.962L796.555 1004.59L797.939 1020.86L788.926 1026.44L792.044 1031.95L801.473 1031.13L801.666 1027.4L810.555 1020.26L816.827 1007.53L834.062 1004.98L837.565 1002.6L833.272 1001.9L833.088 999.796L850.801 990.844L855 990.477L855.754 987.217L851.006 981.321L839.788 986.016L836.435 984.193L845.655 968.518L863.187 957.505L867.85 956.058L868.456 957.044L875.66 954.83L879.064 951.896L874.165 950.195L875.095 948.516L877.71 948.287L883.109 942.348L890.149 939.291L893.013 930.042L900.369 917.244L908.54 913.906L904.219 901.013L896.32 901.223L882.578 912.983L876.062 916.539L869.591 915.716L865.918 910.233L859.181 911.861L850.879 907.316L833.599 909.347L823.178 904.467L813.444 896.32L809.019 887.721L778.521 798.907L779.728 806.762L773.506 808.345L764.65 803.848L754.395 795.227L752.34 795.926L734.007 779.545L730.839 779.822L730.522 769.825L720.736 748.463L720 740.048L721.97 738.837L717.545 730.238L715.629 732.523L704.464 731.902L679.008 736.765L666.367 730.989L663.749 731.776L654.507 728.352L642.878 727.772L634.495 717.403L623.985 711.362ZM662.8 859.791L663.443 867.137L665.738 869.04L665.959 877.5L663.019 880.393L661.296 878.947L659.419 881.227L656.987 877.765L654.511 879.579L654.701 875.81L651.393 874.502L654.712 870.004L652.805 866.457L657.722 861.833L662.8 859.791ZM783.595 935.381L781.119 937.195L775.367 938.218L773.452 940.502L764.538 941.282L765.283 943.866L774.197 943.086L787.085 945.153L789.471 942.308L788.4 936L785.878 937.298L783.595 935.381Z" fill="#EEEEEE" stroke="black" stroke-opacity="0.6" stroke-width="3"/>
<path id="Saskatchewan" d="M371.414 645.782L368.968 660.254L375.323 656.192L380.396 656.307L381.517 659.922L391.229 659.073L405.695 664.196L400.287 665.279L395.147 663.651L390.427 667.259L379.555 666.132L368.017 666.739L333.292 898.125L356.821 901.351L387.211 904.523L438.807 907.956L466.841 908.672L459.884 744.301L460.593 719.022L458.804 720.087L458.094 723.837L453.275 729.583L448.892 733.641L444.725 734.525L442.961 732.602L443.33 730.44L446.926 729.567L447.632 731.102L453.525 726.353L454.275 722.613L453.482 719.488L448.685 713.025L453.319 705.751L455.467 706.121L457.199 701.736L461.841 696.785L461.921 695.48L461.231 695.306L462.418 652.65L449.236 652.712L413.613 650.557L371.414 645.782Z" fill="#EEEEEE" stroke="black" stroke-opacity="0.6" stroke-width="3"/>
<g id="Northwest_Territories">
<path d="M432.111 215.889L417.396 223.059L433.079 226.959L434.774 216.214L432.111 215.889ZM410.396 227.904L407.446 230.24L409.16 237.518L414.161 234.444L410.396 227.904ZM420.836 232.263L415.835 235.336L413.863 242.911L419.087 247.726L429.508 246.814L428.64 236.891L433.492 231.675L420.836 232.263ZM389.172 238.708L372.76 250.22L366.41 250.776L366.301 255.019L355.974 258.039L356.522 264.302L366.192 265.053L365.956 269.32L371.337 270.446L386.668 252.666L383.67 260.382L387.399 266.366L396.878 259.732L397.282 246.997L401.952 246.069L398.601 237.883L393.14 242.075L389.172 238.708ZM402.355 256.617L404.307 260.68L410.435 258.027L402.355 256.617ZM395.186 265.165L387.613 275.333L392.147 278.65L387.242 277.482L382.889 281.577L389.518 285.243L378.08 287.283L387.348 296.497L396.552 298.886L400.989 295.303L400.281 299.079L414.953 297.795L415.276 301.494L407.234 300.068L396.026 304.736L395.373 309.585L402.69 314.736L421.483 308.495L422.643 289.851L417.949 289.612L412.37 274.206L403.088 264.994L395.186 265.165ZM384.401 268.745L369.772 276.894L373.461 282.415L384.401 268.745ZM331.791 295.553L331.528 310.938L304.121 341.864L314.502 357.863L313.371 369.116L325.748 365.345L335.024 368.261L342.163 353.872L371.176 334.92L376.982 334.97L381.318 329.786L375.224 315.023L354.837 305.132L352.476 296.392L331.791 295.553ZM387.061 335.647L365.435 342.291L355.654 351.107L355.691 357.467L345.228 364.719L352.492 375.199L371.027 375.655L349.7 379.638L346.047 385.801L349.21 391.835L362.481 396.946L347.412 407.341L404.464 419.282L412.95 359.314L402.211 363.421L405.298 356.269L394.338 346.126L389.235 353.961L383.393 353.952L391.207 346.386L387.061 335.647ZM220.651 360.282L202.498 364.507L206.93 372.585L224.308 365.741L220.651 360.282ZM197.556 368.094L175.931 404.878L192.861 417.096L184.134 437.961L194.637 442.886L191.907 454.708L183.319 459.212L180.362 467.392L182.353 478.281L188.096 483.102L186.301 493.297L191.904 496.508L189.001 499.969L191.223 507.124L185.617 509.212L187.799 515.904L182.175 536.484L189.27 539.538L197.032 561.648L192.954 575.718L218.617 585.094L215.542 586.441L218.263 605.227L298.166 630.453L371.411 645.743L462.222 652.783L464.95 555.635L394.096 536.967L383.093 519.945L366.217 516.058L309.578 444.296L320.725 410.143L303.798 398.405L297.992 404.743L291.464 402.678L296.15 383.686L282.692 398.693L279.327 396.871L275.679 367.051L272.086 368.404L273.707 374.625L266.41 375.783L267.763 379.378L263.2 381.375L263.438 378.16L250.637 376.644L226.212 381.417L223.366 385.379L220.749 379.206L261.9 372.451L251.312 366.547L243.683 369.85L230.286 367.309L227.535 372.354L221.505 370.193L202.499 376.089L197.556 368.094ZM410.994 349.421L413.506 353.954L414.208 349.659L410.994 349.421ZM259.046 466.818L264.089 469.572L310.841 467.04L314.987 472.001L299.008 476.593L307.504 483.2L317.671 484.427L324.542 478.554L323.604 486.076L315.332 494.189L317.284 498.251L309.906 498.338L304.632 492.956L298.422 494.071L300.223 502.341L282.973 510.2L280.09 507.816L294.68 499.67L290.957 493.607L283.702 494.8L278.009 502.726L264.702 495.424L270.631 495.983L270.739 491.727L279.466 488.808L277.665 480.538L289.706 484.796L284.759 476.762L267.627 474.547L266.833 471.409L257.682 475.417L259.046 466.818ZM318.211 563.149L319.564 566.744L325.209 564.653L319.781 569.374L341.331 591.824L353.465 591.801L371.825 577.482L390.188 582.796L387.757 585.126L375.145 579.827L364.442 584.491L378.145 583.85L371.592 587.579L374.944 589.402L367.576 590.047L349.384 605.39L338.263 605.272L332.14 613.768L306.555 611.215L287.858 590.671L299.51 603.39L303.539 600.921L310.293 605.135L317.31 595.431L325.819 595.817L327.597 591.947L319.405 576.796L318.211 563.149ZM350.793 597.307L346.211 599.824L356.122 597.399L350.793 597.307Z" fill="#EEEEEE"/>
<path d="M415.206 349.052L414.026 353.96M354.119 593.341L348.133 597.02M432.111 215.889L434.774 216.214L433.079 226.959L417.396 223.059L432.111 215.889ZM410.396 227.904L407.446 230.24L409.16 237.518L414.161 234.444L410.396 227.904ZM420.836 232.263L415.835 235.336L413.863 242.911L419.087 247.726L429.508 246.814L428.64 236.891L433.492 231.675L420.836 232.263ZM389.172 238.708L393.14 242.075L398.601 237.883L401.952 246.069L397.282 246.997L396.878 259.732L387.399 266.366L383.67 260.382L386.668 252.666L371.337 270.446L365.956 269.32L366.192 265.053L356.522 264.302L355.974 258.039L366.301 255.019L366.41 250.776L372.76 250.22L389.172 238.708ZM402.355 256.617L404.307 260.68L410.435 258.027L402.355 256.617ZM395.186 265.165L403.088 264.994L412.37 274.206L417.949 289.612L422.643 289.851L421.483 308.495L402.69 314.736L395.373 309.585L396.026 304.736L407.234 300.068L415.276 301.494L414.953 297.795L400.281 299.079L400.989 295.303L396.552 298.886L387.348 296.497L378.08 287.283L389.518 285.243L382.889 281.577L387.242 277.482L392.147 278.65L387.613 275.333L395.186 265.165ZM384.401 268.745L369.772 276.894L373.461 282.415L384.401 268.745ZM331.791 295.553L352.476 296.392L354.837 305.132L375.224 315.023L381.318 329.786L376.982 334.97L371.176 334.92L342.163 353.872L335.024 368.261L325.748 365.345L313.371 369.116L314.502 357.863L304.121 341.864L331.528 310.938L331.791 295.553ZM387.061 335.647L391.207 346.386L383.393 353.952L389.235 353.961L394.338 346.126L405.298 356.269L402.211 363.421L412.95 359.314L404.464 419.282L347.412 407.341L362.481 396.946L349.21 391.835L346.047 385.801L349.7 379.638L371.027 375.655L352.492 375.199L345.228 364.719L355.691 357.467L355.654 351.107L365.435 342.291L387.061 335.647ZM220.651 360.282L224.308 365.741L206.93 372.585L202.498 364.507L220.651 360.282ZM197.556 368.094L175.931 404.878L192.861 417.096L184.134 437.961L194.637 442.886L191.907 454.708L183.319 459.212L180.362 467.392L182.353 478.281L188.096 483.102L186.301 493.297L191.904 496.508L189.001 499.969L191.223 507.124L185.617 509.212L187.799 515.904L182.175 536.484L189.27 539.538L197.032 561.648L192.954 575.718L218.617 585.094L215.542 586.441L218.263 605.227L298.166 630.453L371.411 645.743L462.222 652.783L464.95 555.635L394.096 536.967L383.093 519.945L366.217 516.058L309.578 444.296L320.725 410.143L303.798 398.405L297.992 404.743L291.464 402.678L296.15 383.686L282.692 398.693L279.327 396.871L275.679 367.051L272.086 368.404L273.707 374.625L266.41 375.783L267.763 379.378L263.2 381.375L263.438 378.16L250.637 376.644L226.212 381.417L223.366 385.379L220.749 379.206L261.9 372.451L251.312 366.547L243.683 369.85L230.286 367.309L227.535 372.354L221.505 370.193L202.499 376.089L197.556 368.094ZM410.994 349.421L414.208 349.659L413.506 353.954L410.994 349.421ZM259.046 466.818L264.089 469.572L310.841 467.04L314.987 472.001L299.008 476.593L307.504 483.2L317.671 484.427L324.542 478.554L323.604 486.076L315.332 494.189L317.284 498.251L309.906 498.338L304.632 492.956L298.422 494.071L300.223 502.341L282.973 510.2L280.09 507.816L294.68 499.67L290.957 493.607L283.702 494.8L278.009 502.726L264.702 495.424L270.631 495.983L270.739 491.727L279.466 488.808L277.665 480.538L289.706 484.796L284.759 476.762L267.627 474.547L266.833 471.409L257.682 475.417L259.046 466.818ZM318.211 563.149L319.564 566.744L325.209 564.653L319.781 569.374L341.331 591.824L353.465 591.801L371.825 577.482L390.188 582.796L387.757 585.126L375.145 579.827L364.442 584.491L378.145 583.85L371.592 587.579L374.944 589.402L367.576 590.047L349.384 605.39L338.263 605.272L332.14 613.768L306.555 611.215L287.858 590.671L299.51 603.39L303.539 600.921L310.293 605.135L317.31 595.431L325.819 595.817L327.597 591.947L319.405 576.796L318.211 563.149ZM350.793 597.307L346.211 599.824L356.122 597.399L350.793 597.307Z" stroke="black" stroke-opacity="0.6" stroke-width="3"/>
</g>
<g id="Yukon">
<path fill-rule="evenodd" clip-rule="evenodd" d="M176.795 330.786L49.5012 505.811L68.8421 518.585L64.2851 524.061L92.162 543.606L170.091 585.146L218.273 604.745L215.636 586.472L218.711 585.125L192.995 575.74L197.08 561.605L189.313 539.586L182.166 536.524L187.759 515.894L185.582 509.254L191.24 507.162L191.904 496.508L186.304 493.323L188.087 483.142L182.356 478.32L183.32 459.212L191.927 454.784L194.602 442.928L184.138 438L192.903 417.132L175.927 404.827L197.556 368.094L191.868 363.32L187.689 345.662L176.795 330.786Z" fill="#EEEEEE"/>
<path d="M64.2851 524.061L67.2814 518.994M64.2851 524.061L68.8421 518.585L49.5012 505.811L176.795 330.786L187.689 345.662L191.868 363.32L197.556 368.094L175.927 404.827L192.903 417.132L184.138 438L194.602 442.928L191.927 454.784L183.32 459.212L182.356 478.32L188.087 483.142L186.304 493.323L191.904 496.508L191.24 507.162L185.582 509.254L187.759 515.894L182.166 536.524L189.313 539.586L197.08 561.605L192.995 575.74L218.711 585.125L215.636 586.472L218.273 604.745L170.091 585.146L92.162 543.606L64.2851 524.061Z" stroke="black" stroke-opacity="0.6" stroke-width="3"/>
</g>
<path id="Prince_Edward_Island" d="M1037.71 789.944L1036.39 799.045L1046.32 802.981L1061.92 801.057L1065.37 803.95L1065.61 800.735L1075.28 796.201L1071.47 789.145L1072.97 782.106L1065.08 788.627L1063.82 786.101L1048.35 796.96L1037.71 789.944Z" fill="#EEEEEE" stroke="black" stroke-opacity="0.6" stroke-width="3"/>
<path id="New_Brunswick" d="M1018.39 780.558L1012.92 784.243L1010.76 789.704L1007.64 790.497L1004.69 787.041L994.203 788.517L979.08 801.994L976.84 800.58L969.75 804.395L967.021 809.399L970.705 814.868L965.173 824.338L967.93 822.019L964.742 825.337L979.477 818.854L986.182 822.5L1002.17 848.604L1008.57 848.564L1013.93 856.042L1018.73 856.141L1031.18 848.183L1031.89 843.888L1035.49 843.054L1046.62 819.29L1050.14 816.905L1050.75 812.06L1054.77 809.63L1054.97 805.938L1040.38 808.253L1032.96 802.02L1030.4 802.763L1027.29 797.245L1020.5 798.357L1022.24 793.973L1018.39 780.558Z" fill="#EEEEEE" stroke="black" stroke-opacity="0.6" stroke-width="3"/>
<path id="Manitoba" d="M462.323 651.567L461.18 695.622L462.543 694.88L462.47 696.717L464.592 696.337L463.034 702.265L468.186 700.775L461.564 711.873L463.203 716.521L460.536 718.377L459.845 744.305L466.802 908.675L504.856 908.501L561.645 905.13L554.729 814.214L575.68 788.125L623.444 712.007L612.424 712.451L604.624 707.862L595.057 707.102L585.156 714.85L577.584 712.864L578.891 709.555L572.245 688.477L567.639 683.608L568.668 677.116L563.763 675.948L561.34 678.367L549.8 678.805L549.523 675.635L545.423 671.8L546.003 665.958L544.042 649.183L514.68 652.271L462.988 652.639L462.323 651.567ZM512.754 781.437L514.755 786.066L512.231 787.326L515.81 798.115L515.523 800.776L519.488 804.104L522.794 811.775L525.432 823.686L528.464 828.225L529.437 833.412L532.416 837.345L534.083 844.082L540.199 853.611L539.352 855.801L540.269 866.278L535.589 873.609L533.478 873.222L531.539 863.367L532.808 853.699L531.085 852.252L532.637 845.806L531.422 843.782L529.882 844.436L527.823 851.018L525.548 843.257L526.34 839.994L521.296 837.241L521.593 834.098L519.493 834.282L517.291 839.227L515.085 838.342L512.858 831.136L509.075 829.882L507.032 824.776L504.139 821.835L504.564 820.759L501.118 817.866L502.007 815.71L505.691 815.388L507.092 813.149L502.281 813.05L499.769 814.309L496.044 808.233L502.455 796.648L501.572 792.492L510.853 795.913L512.218 793.118L509.372 791.29L509.519 787.044L506.249 785.72L512.754 781.437Z" fill="#EEEEEE" stroke="black" stroke-opacity="0.6" stroke-width="3"/>
<path id="Alberta" d="M259.153 619.076L258.972 619.974L258.175 619.759L215.659 756.163L216.294 755.705L222.216 759.9L217.843 762.88L223.705 768.756L222.853 770.441L228.444 772.626L226.832 777.053L233.299 783.914L233.603 792.874L237.609 795.198L238.211 800.742L241.095 801.814L245.354 807.026L245.998 813.046L250.985 813.974L251.404 823.209L258.745 834.123L258.011 838.499L263.387 846.092L268.535 851.083L268.258 861.261L266.171 873.754L270.993 881.396L272.096 887.624L333.296 898.618L368.043 667.49L364.945 668.566L361.947 670.945L358.154 675.51L354.801 673.687L351.623 673.406L350.969 671.866L352.463 670.697L355.725 671.489L357.126 669.25L362.982 663.933L368.449 660.26L368.519 661.059L371.414 645.782L298.173 630.53L259.153 619.076Z" fill="#EEEEEE" stroke="black" stroke-opacity="0.6" stroke-width="3"/>
<path id="Newfoundland_and_Labrador_" d="M868.571 535.983L866.696 538.744L865.874 541.218L869.088 541.457L869.407 545.103L870.805 549.214L874.673 550.993L876.029 548.238L878.547 553.29L882.6 557.181L877.738 561.84L885.411 559.052L888.625 559.29L893.1 555.691L894.824 557.151L890.474 562.323L895.105 567.19L892.304 571.668L893.652 574.758L902.369 577.67L907.225 578.284L910.81 582.762L910.021 586.506L913.329 587.813L912.064 591.599L916.032 594.978L913.83 599.924L921.115 604.559L918.487 604.788L923.284 611.251L928.374 609.196L927.023 612.002L934.578 619.729L932.666 622.052L937.329 620.605L938.817 625.747L942.583 632.3L939.553 634.162L944.732 638.462L939.634 641.024L935.812 639.762L931.877 643.3L928.476 640.923L921.776 648.911L911.227 648.795L901.989 645.876L908.925 652.152L909.862 657.381L896.847 653.715L900.385 657.651L907.09 661.298L905.319 665.686L900.36 669.834L905.405 672.6L905.26 677.326L916.448 684.294L918.467 683.04L924.948 690.953L920.978 693.936L923.909 696.874L932.555 699.273L933.428 697.08L930.445 693.108L932.737 689.18L939.05 695.03L938.716 697.137L941.608 700.078L940.252 702.833L942.581 705.265L943.936 702.51L947.849 704.804L954.537 702.622L954.824 699.961L962.656 705.067L967.225 702.551L972.268 706.343L975.585 701.819L971.076 692.708L968.849 685.502L965.866 681.529L965.547 677.882L967.738 672.367L971.569 674.161L967.271 679.342L968.059 682.415L975.3 686.547L977.719 690.011L1054.16 633.641L1062.93 643.183L1066.1 639.998L1068.21 627.659L1068.41 618.123L1062.96 610.133L1059.49 611.476L1049.9 600.16L1041.3 597.718L1034.4 597.842L1031.03 601.811L1031.54 607.61L1028.79 606.254L1027.3 601.099L1020.5 596.383L1011.74 604.59L1013.51 606.552L1007.9 615.431L1008.5 622.287L1006.53 623.537L1001.1 637.205L999.152 624.182L1005.98 610.885L1005.62 606.684L1013.92 593.284L1012.99 588.561L1006.21 589.725L1003.37 587.338L1001.4 589.107L1001.77 593.269L997.695 595.223L987.989 592.877L985.098 596.325L980.753 594.588L977.474 599.68L971.78 601.217L972.432 596.355L967.775 591.49L960.147 594.794L955.213 593.148L952.779 595.438L952.502 592.268L948.716 590.989L945.736 593.419L940.138 589.662L937.429 583.03L937.823 575.074L936.088 573.642L930.907 574.654L929.654 572.647L922.687 571.646L924.993 567.73L921.85 563.85C921.366 564.697 916.552 565.313 915.831 565.376L914.955 561.739L909.026 560.141L907.728 557.619L900.315 561.02L901.893 557.091L899.334 552.029L896.764 552.774L889.48 548.139L886.263 547.862L884.063 546.457L875.345 543.545L868.571 535.983ZM1076.76 625.833L1076.39 627.982L1074.29 628.166L1071.32 642.177L1071.99 656.376L1073.72 663.666L1080.65 683.122L1080.27 690.583L1084.84 694.935L1087.03 695.783L1084.04 697.654L1084.82 706.572L1086.17 710.129L1082.01 710.493L1079.2 714.972L1082.52 716.292L1088.82 709.897L1090.59 711.859L1089.1 713.067L1089.88 721.959L1087.27 728.576L1091.18 730.831L1090.89 733.531L1094.54 733.212L1098.08 731.305L1103.84 723.932L1108.19 719.837L1110.76 719.093L1116.14 714.389L1119.88 714.581L1124.4 711.537L1126.1 707.155L1131.34 700.905L1134.14 696.427L1136.38 697.828L1137.26 701.984L1142.79 698.826L1141.39 694.754L1145.22 690.172L1149.05 691.967L1146.76 695.843L1146.46 704.335L1143.89 711.442L1146.77 713.826L1154.03 706.308L1154.36 704.163L1152.51 694.82L1155.77 690.288L1152.19 679.499L1153.69 678.329L1156.31 678.099L1161.53 682.915L1165.77 689.426L1165.53 692.642L1168.97 695.496L1170.94 694.285L1171.19 685.264L1173.2 684.011L1173.57 688.212L1179.82 692.95L1180.53 689.213L1182.92 686.355L1182.69 683.7L1179.43 676.584L1176.88 665.704L1170.42 664.152L1169.95 671.076L1168.13 674.43L1165.33 672.558L1165.29 666.16L1164.03 663.672L1164.79 660.412L1162.59 659.007L1160.17 661.894L1161.36 675.541L1163.13 677.503L1156.49 674.37L1157.35 671.659L1155.58 669.684L1150.85 670.098L1150.29 669.627L1154.04 664.027L1153.91 662.442L1155.35 660.718L1153.5 651.92L1151.34 651.551L1151.57 654.179L1149.24 657.578L1150.07 661.18L1145.54 663.693L1145.74 660.001L1143.45 658.084L1139.3 658.967L1137.58 657.521L1138.43 649.006L1136.7 647.559L1132.5 647.408L1121.93 653.605L1122.16 656.233L1118.04 663.463L1113.98 659.585L1113.18 662.33L1109.72 665.268L1101.22 663.896L1104.22 656.244L1102.92 653.67L1100.49 656L1096.43 657.965L1095.32 657.543L1092.22 658.334L1094.27 663.426L1092.44 666.781L1094.58 672.904L1089.22 666.504L1086.77 650.331L1081.5 645L1083.56 643.743L1085.28 645.189L1083.43 636.352L1082.17 633.826L1079.32 637.802L1078.06 635.225L1081.84 630.102L1080.88 625.473L1076.76 625.833ZM954.727 638.626L957.056 641.058L956.724 643.204L959.801 648.259L957.702 648.443L955.786 650.727L955.966 652.789L951.046 656.933L947.694 655.11L943.488 654.958L945.816 657.391L942.361 660.329L945.205 662.716L942.22 665.094L939 664.337L942.721 670.374L952.24 670.58L952.424 672.681L940.335 673.219L934.833 665.221L933.158 664.328L931.613 664.464L918.171 661.406L912.935 662.384L913.831 654.384L916.824 658.33L930.361 662.469L931.76 660.217L927.56 654.196L930.451 650.736L937.141 654.955L937.991 652.803L936.268 651.357L940.742 647.758L938.095 641.679L947.02 647.26L952.459 648.901L953.35 647.213L949.521 645.432L950.367 643.241L954.727 638.626Z" fill="#EEEEEE" stroke="black" stroke-opacity="0.6" stroke-width="3"/>
</g>
<g id="Group 1">
<circle id="Ellipse 1" cx="1093.5" cy="720.5" r="18.5" fill="#395E88"/>
<text id="1" fill="white" style="white-space: pre" xml:space="preserve" font-family="Inter" font-size="16" font-weight="bold" letter-spacing="0em"><tspan x="1090" y="725.818">1</tspan></text>
</g>
<g id="Group 2">
<circle id="Ellipse 1_2" cx="750.5" cy="928.5" r="18.5" fill="#395E88"/>
<text id="2" fill="white" style="white-space: pre" xml:space="preserve" font-family="Inter" font-size="16" font-weight="bold" letter-spacing="0em"><tspan x="745" y="933.818">2</tspan></text>
</g>
<g id="Group 3">
<circle id="Ellipse 1_3" cx="811.5" cy="1007.5" r="18.5" fill="#395E88"/>
<text id="3" fill="white" style="white-space: pre" xml:space="preserve" font-family="Inter" font-size="16" font-weight="bold" letter-spacing="0em"><tspan x="806" y="1012.82">3</tspan></text>
</g>
<g id="Group 4">
<circle id="Ellipse 1_4" cx="497.5" cy="870.5" r="18.5" fill="#395E88"/>
<text id="4" fill="white" style="white-space: pre" xml:space="preserve" font-family="Inter" font-size="16" font-weight="bold" letter-spacing="0em"><tspan x="492" y="875.818">4</tspan></text>
</g>
<g id="Group 5">
<circle id="Ellipse 1_5" cx="443.5" cy="897.5" r="18.5" fill="#395E88"/>
<text id="5" fill="white" style="white-space: pre" xml:space="preserve" font-family="Inter" font-size="16" font-weight="bold" letter-spacing="0em"><tspan x="438" y="902.818">5</tspan></text>
</g>
<g id="Group 6">
<circle id="Ellipse 1_6" cx="343.5" cy="681.5" r="18.5" fill="#395E88"/>
<text id="6" fill="white" style="white-space: pre" xml:space="preserve" font-family="Inter" font-size="16" font-weight="bold" letter-spacing="0em"><tspan x="338" y="686.818">6</tspan></text>
</g>
<g id="Group 7">
<circle id="Ellipse 1_7" cx="337.5" cy="555.5" r="18.5" fill="#395E88"/>
<text id="7" fill="white" style="white-space: pre" xml:space="preserve" font-family="Inter" font-size="16" font-weight="bold" letter-spacing="0em"><tspan x="332" y="560.818">7</tspan></text>
</g>
</g>
<defs>
<clipPath id="clip0_45_17">
<rect width="1200" height="1200" fill="white"/>
</clipPath>
</defs>
</svg>
