<svg width="188" height="155" viewBox="0 0 188 155" fill="none" xmlns="http://www.w3.org/2000/svg">
<path d="M154.5 103.5L155 93.0001M155 93.0001L165.5 96.5001M155 93.0001L161.5 83.0001M155 93.0001L150.5 82.5001M155 93.0001L143 94.5001" stroke="#787878" stroke-width="0.3"/>
<path d="M120.5 121.5L124 131.5L128.5 141M124 131.5L135.5 132.5M124 131.5L130.5 122.5" stroke="#787878" stroke-width="0.3"/>
<path d="M102.5 103.5L107.5 115L119 112.5M107.5 115L113.5 103.5" stroke="#787878" stroke-width="0.3"/>
<path d="M89.5 126.5L100 121L95.5 110M100 121L87 115.5" stroke="#787878" stroke-width="0.3"/>
<path d="M100.5 141.5L108.5 135M108.5 135L111.5 145M108.5 135L107.5 124M108.5 135L99 131.5" stroke="#787878" stroke-width="0.3"/>
<path d="M84 105.5L72.5 108M72.5 108L75.5 116M72.5 108L79.5 95.5001M72.5 108L68 99.5001" stroke="#787878" stroke-width="0.3"/>
<path d="M59.5 109.5L65.5 118M59.5 109.5L58.5 97.5001M59.5 109.5L50.5 103.5" stroke="#787878" stroke-width="0.3"/>
<path d="M34.5 90.5001L42 97.0001L38.5 106M42 97.0001L29.5 100.5" stroke="#787878" stroke-width="0.3"/>
<path d="M43.5 82.5001L50.5 90.0001M43.5 82.5001L34.5 80.0001M43.5 82.5001L54.5 78.5001" stroke="#787878" stroke-width="0.3"/>
<path d="M36.5 46.5001L37 57.0001L34.5 66.5001M37 57.0001L27.5 58.5001" stroke="#787878" stroke-width="0.3"/>
<path d="M59.5 62.0001L49.5 68.5001V58.5001" stroke="#787878" stroke-width="0.3"/>
<path d="M44.5 113.5L53.5 119L54.5 131M53.5 119L43.5 123.5" stroke="#787878" stroke-width="0.3"/>
<circle cx="37.0892" cy="56.7036" r="2.79167" transform="rotate(-3 37.0892 56.7036)" fill="#FAFAFA" stroke="#605D5F"/>
<circle cx="49.5431" cy="67.9171" r="2.79167" transform="rotate(-3 49.5431 67.9171)" fill="#FAFAFA" stroke="#605D5F"/>
<circle cx="43.7268" cy="82.7252" r="2.79167" transform="rotate(-3 43.7268 82.7252)" fill="#FAFAFA" stroke="#605D5F"/>
<circle cx="41.8551" cy="97.3266" r="2.79167" transform="rotate(-3 41.8551 97.3266)" fill="#FAFAFA" stroke="#605D5F"/>
<circle cx="59.6374" cy="109.579" r="2.79167" transform="rotate(-3 59.6374 109.579)" fill="#FAFAFA" stroke="#605D5F"/>
<circle cx="72.7171" cy="107.575" r="2.79167" transform="rotate(-3 72.7171 107.575)" fill="#FAFAFA" stroke="#605D5F"/>
<circle cx="99.7724" cy="120.661" r="2.79167" transform="rotate(-3 99.7724 120.661)" fill="#FAFAFA" stroke="#605D5F"/>
<circle cx="107.386" cy="114.988" r="2.79167" transform="rotate(-3 107.386 114.988)" fill="#FAFAFA" stroke="#605D5F"/>
<circle cx="124.06" cy="131.254" r="2.79167" transform="rotate(-3 124.06 131.254)" fill="#FAFAFA" stroke="#605D5F"/>
<circle cx="108.42" cy="134.711" r="2.79167" transform="rotate(-3 108.42 134.711)" fill="#FAFAFA" stroke="#605D5F"/>
<circle cx="155.002" cy="92.7152" r="2.79167" transform="rotate(-3 155.002 92.7152)" fill="#FAFAFA" stroke="#605D5F"/>
<circle cx="53.5454" cy="119.128" r="2.79167" transform="rotate(-3 53.5454 119.128)" fill="#FAFAFA" stroke="#605D5F"/>
<circle cx="34.4594" cy="66.4595" r="3.29167" transform="rotate(-3 34.4594 66.4595)" fill="#004667"/>
<circle cx="54.4594" cy="78.4596" r="3.29167" transform="rotate(-3 54.4594 78.4596)" fill="#004667"/>
<circle cx="49.4594" cy="58.4596" r="3.29167" transform="rotate(-3 49.4594 58.4596)" fill="#004667"/>
<circle cx="59.4594" cy="61.4596" r="3.29167" transform="rotate(-3 59.4594 61.4596)" fill="#004667"/>
<circle cx="27.4594" cy="58.4595" r="3.29167" transform="rotate(-3 27.4594 58.4595)" fill="#004667"/>
<circle cx="36.4595" cy="46.4596" r="3.29167" transform="rotate(-3 36.4595 46.4596)" fill="#004667"/>
<circle cx="50.4594" cy="89.4595" r="3.29167" transform="rotate(-3 50.4594 89.4595)" fill="#004667"/>
<circle cx="34.4594" cy="79.4595" r="3.29167" transform="rotate(-3 34.4594 79.4595)" fill="#004667"/>
<circle cx="38.4594" cy="105.46" r="3.29167" transform="rotate(-3 38.4594 105.46)" fill="#004667"/>
<circle cx="29.4594" cy="100.459" r="3.29167" transform="rotate(-3 29.4594 100.459)" fill="#004667"/>
<circle cx="34.4594" cy="90.4595" r="3.29167" transform="rotate(-3 34.4594 90.4595)" fill="#004667"/>
<circle cx="65.4594" cy="117.46" r="3.29167" transform="rotate(-3 65.4594 117.46)" fill="#004667"/>
<circle cx="79.4594" cy="95.4596" r="3.29167" transform="rotate(-3 79.4594 95.4596)" fill="#004667"/>
<circle cx="68.4594" cy="99.4596" r="3.29167" transform="rotate(-3 68.4594 99.4596)" fill="#004667"/>
<circle cx="75.4594" cy="115.46" r="3.29167" transform="rotate(-3 75.4594 115.46)" fill="#004667"/>
<circle cx="58.4594" cy="97.4596" r="3.29167" transform="rotate(-3 58.4594 97.4596)" fill="#004667"/>
<circle cx="50.4594" cy="103.46" r="3.29167" transform="rotate(-3 50.4594 103.46)" fill="#004667"/>
<circle cx="83.4594" cy="105.46" r="3.29167" transform="rotate(-3 83.4594 105.46)" fill="#004667"/>
<circle cx="107.459" cy="124.46" r="3.29167" transform="rotate(-3 107.459 124.46)" fill="#004667"/>
<circle cx="100.459" cy="141.46" r="3.29167" transform="rotate(-3 100.459 141.46)" fill="#004667"/>
<circle cx="111.459" cy="144.46" r="3.29167" transform="rotate(-3 111.459 144.46)" fill="#004667"/>
<circle cx="118.459" cy="112.46" r="3.29167" transform="rotate(-3 118.459 112.46)" fill="#004667"/>
<circle cx="120.459" cy="121.46" r="3.29167" transform="rotate(-3 120.459 121.46)" fill="#004667"/>
<circle cx="113.459" cy="103.46" r="3.29167" transform="rotate(-3 113.459 103.46)" fill="#004667"/>
<circle cx="102.459" cy="103.46" r="3.29167" transform="rotate(-3 102.459 103.46)" fill="#004667"/>
<circle cx="95.4593" cy="110.46" r="3.29167" transform="rotate(-3 95.4593 110.46)" fill="#004667"/>
<circle cx="87.4594" cy="115.46" r="3.29167" transform="rotate(-3 87.4594 115.46)" fill="#004667"/>
<circle cx="89.4594" cy="126.46" r="3.29167" transform="rotate(-3 89.4594 126.46)" fill="#004667"/>
<circle cx="99.4593" cy="131.46" r="3.29167" transform="rotate(-3 99.4593 131.46)" fill="#004667"/>
<circle cx="130.459" cy="122.46" r="3.29167" transform="rotate(-3 130.459 122.46)" fill="#004667"/>
<circle cx="128.459" cy="140.46" r="3.29167" transform="rotate(-3 128.459 140.46)" fill="#004667"/>
<circle cx="135.459" cy="132.46" r="3.29167" transform="rotate(-3 135.459 132.46)" fill="#004667"/>
<circle cx="165.459" cy="96.4596" r="3.29167" transform="rotate(-3 165.459 96.4596)" fill="#004667"/>
<circle cx="154.459" cy="103.46" r="3.29167" transform="rotate(-3 154.459 103.46)" fill="#004667"/>
<circle cx="143.459" cy="94.4596" r="3.29167" transform="rotate(-3 143.459 94.4596)" fill="#004667"/>
<circle cx="44.4594" cy="113.46" r="3.29167" transform="rotate(-3 44.4594 113.46)" fill="#004667"/>
<circle cx="43.4594" cy="123.46" r="3.29167" transform="rotate(-3 43.4594 123.46)" fill="#004667"/>
<circle cx="54.4594" cy="130.46" r="3.29167" transform="rotate(-3 54.4594 130.46)" fill="#004667"/>
<circle cx="161.459" cy="83.4596" r="3.29167" transform="rotate(-3 161.459 83.4596)" fill="#004667"/>
<circle cx="150.459" cy="82.4596" r="3.29167" transform="rotate(-3 150.459 82.4596)" fill="#004667"/>
</svg>
