<svg width="188" height="155" viewBox="0 0 188 155" fill="none" xmlns="http://www.w3.org/2000/svg">
<circle cx="118.357" cy="75.357" r="7" transform="rotate(-3 118.357 75.357)" fill="#5DA1A4"/>
<circle cx="70.3568" cy="75.357" r="6.5" transform="rotate(-3 70.3568 75.357)" fill="#FAFAFA" stroke="#605D5F"/>
<path d="M103.53 75.2632C103.823 74.9703 103.823 74.4955 103.53 74.2026L98.7574 69.4296C98.4645 69.1367 97.9896 69.1367 97.6967 69.4296C97.4038 69.7225 97.4038 70.1974 97.6967 70.4903L101.939 74.7329L97.6967 78.9756C97.4038 79.2684 97.4038 79.7433 97.6967 80.0362C97.9896 80.3291 98.4645 80.3291 98.7574 80.0362L103.53 75.2632ZM85 74.7329V75.4829H103V74.7329V73.9829H85V74.7329Z" fill="#8F8F8F"/>
<rect x="44" y="99.7328" width="98" height="10" rx="3" fill="#D4D3D3"/>
<rect x="44" y="99.7328" width="65" height="10" rx="3" fill="#827F80"/>
<rect x="44" y="119.733" width="98" height="10" rx="3" fill="#D4D3D3"/>
<path d="M44 122.733C44 121.076 45.3431 119.733 47 119.733H89C90.6569 119.733 92 121.076 92 122.733V126.733C92 128.39 90.6569 129.733 89 129.733H47C45.3431 129.733 44 128.39 44 126.733V122.733Z" fill="#827F80"/>
</svg>
